HIERARCHY
ROOT Hips
{
	OFFSET 0.000000 0.000000 0.000000
	CHANNELS 6 Xposition Yposition Zposition Zrotation Yrotation Xrotation 
	JOINT LHipJoint
	{
		OFFSET 0.000000 0.000000 0.000000
		CHANNELS 3 Zrotation Yrotation Xrotation
		JOINT LeftUpLeg
		{
			OFFSET 1.363060 -1.794630 0.839290
			CHANNELS 3 Zrotation Yrotation Xrotation
			JOINT LeftLeg
			{
				OFFSET 2.448110 -6.726130 0.000000
				CHANNELS 3 Zrotation Yrotation Xrotation
				JOINT LeftFoot
				{
					OFFSET 2.562200 -7.039590 0.000000
					CHANNELS 3 Zrotation Yrotation Xrotation
					JOINT LeftToeBase
					{
						OFFSET 0.157640 -0.433110 2.322550
						CHANNELS 3 Zrotation Yrotation Xrotation
						End Site
						{
							OFFSET 0.000000 0.000000 0.000000
						}
					}
				}
			}
		}
	}
	JOINT RHipJoint
	{
		OFFSET 0.000000 0.000000 0.000000
		CHANNELS 3 Zrotation Yrotation Xrotation
		JOINT RightUpLeg
		{
			OFFSET -1.305520 -1.794630 0.839290
			CHANNELS 3 Zrotation Yrotation Xrotation
			JOINT RightLeg
			{
				OFFSET -2.542530 -6.985550 0.000000
				CHANNELS 3 Zrotation Yrotation Xrotation
				JOINT RightFoot
				{
					OFFSET -2.568260 -7.056230 0.000000
					CHANNELS 3 Zrotation Yrotation Xrotation
					JOINT RightToeBase
					{
						OFFSET -0.164730 -0.452590 2.363150
						CHANNELS 3 Zrotation Yrotation Xrotation
						End Site
						{
							OFFSET 0.000000 0.000000 0.000000
						}
					}
				}
			}
		}
	}
	JOINT LowerBack
	{
		OFFSET 0.000000 0.000000 0.000000
		CHANNELS 3 Zrotation Yrotation Xrotation
		JOINT Spine
		{
			OFFSET 0.028270 2.035590 -0.193380
			CHANNELS 3 Zrotation Yrotation Xrotation
			JOINT Spine1
			{
				OFFSET 0.056720 2.048850 -0.042750
				CHANNELS 3 Zrotation Yrotation Xrotation
				JOINT Neck
				{
					OFFSET 0.000000 0.000000 0.000000
					CHANNELS 3 Zrotation Yrotation Xrotation
					JOINT Neck1
					{
						OFFSET -0.054170 1.746240 0.172020
						CHANNELS 3 Zrotation Yrotation Xrotation
						JOINT Head
						{
							OFFSET 0.104070 1.761360 -0.123970
							CHANNELS 3 Zrotation Yrotation Xrotation
							End Site
							{
								OFFSET 0.000000 0.000000 0.000000
							}
						}
					}
				}
				JOINT LeftShoulder
				{
					OFFSET 0.000000 0.000000 0.000000
					CHANNELS 3 Zrotation Yrotation Xrotation
					JOINT LeftArm
					{
						OFFSET 3.362410 1.200890 -0.311210
						CHANNELS 3 Zrotation Yrotation Xrotation
						JOINT LeftForeArm
						{
							OFFSET 4.983000 -0.000000 -0.000000
							CHANNELS 3 Zrotation Yrotation Xrotation
							JOINT LeftHand
							{
								OFFSET 3.483560 -0.000000 -0.000000
								CHANNELS 3 Zrotation Yrotation Xrotation
								JOINT LeftFingerBase
								{
									OFFSET 0.000000 0.000000 0.000000
									CHANNELS 3 Zrotation Yrotation Xrotation
									JOINT LeftHandIndex1
									{
										OFFSET 0.715260 -0.000000 -0.000000
										CHANNELS 3 Zrotation Yrotation Xrotation
										End Site
										{
											OFFSET 0.000000 0.000000 0.000000
										}
									}
								}
								JOINT LThumb
								{
									OFFSET 0.000000 0.000000 0.000000
									CHANNELS 3 Zrotation Yrotation Xrotation
									End Site
									{
										OFFSET 0.000000 0.000000 0.000000
									}
								}
							}
						}
					}
				}
				JOINT RightShoulder
				{
					OFFSET 0.000000 0.000000 0.000000
					CHANNELS 3 Zrotation Yrotation Xrotation
					JOINT RightArm
					{
						OFFSET -3.136600 1.374050 -0.404650
						CHANNELS 3 Zrotation Yrotation Xrotation
						JOINT RightForeArm
						{
							OFFSET -5.241900 -0.000000 -0.000000
							CHANNELS 3 Zrotation Yrotation Xrotation
							JOINT RightHand
							{
								OFFSET -3.444170 -0.000000 -0.000000
								CHANNELS 3 Zrotation Yrotation Xrotation
								JOINT RightFingerBase
								{
									OFFSET 0.000000 0.000000 0.000000
									CHANNELS 3 Zrotation Yrotation Xrotation
									JOINT RightHandIndex1
									{
										OFFSET -0.622530 -0.000000 -0.000000
										CHANNELS 3 Zrotation Yrotation Xrotation
										End Site
										{
											OFFSET 0.000000 0.000000 0.000000
										}
									}
								}
								JOINT RThumb
								{
									OFFSET 0.000000 0.000000 0.000000
									CHANNELS 3 Zrotation Yrotation Xrotation
									End Site
									{
										OFFSET 0.000000 0.000000 0.000000
									}
								}
							}
						}
					}
				}
			}
		}
	}
}
MOTION
Frames: 5
Frame Time: 0.033333
-1.680246 17.085555 23.791261 -0.733742 -11.211521 12.703230 -7.505756 9.689461 7.602553 -12.797014 -13.409220 -13.149226 16.639875 -19.271231 -34.069996 0.722962 11.040184 69.789917 0.000000 0.000000 0.000000 8.946314 -13.920768 -2.404453 17.053830 19.508839 -17.655563 -12.125120 -12.837443 69.840932 11.124166 -4.902161 -16.212791 0.000000 0.000000 0.000000 -3.009257 3.002977 4.634870 -1.516230 2.124795 1.859249 6.420479 1.941817 -6.800695 5.138792 0.855161 -7.069378 3.270931 0.880011 -9.359063 0.000000 0.000000 0.000000 -2.669040 8.685405 17.666531 -80.714926 -5.277558 -21.830271 -145.880395 -74.664730 176.771039 17.122412 -11.100902 -1.718563 17.713358 -10.727532 -0.000000 0.000000 0.000000 0.000000 0.000000 0.000000 0.000000 4.483960 -13.412707 5.312912 51.821867 6.772604 22.728854 22.096046 73.637728 0.439852 0.188488 11.192329 0.218176 0.179912 11.198478 0.000000 0.000000 0.000000 0.000000 0.000000 0.000000 0.000000 
-1.700650 17.106795 23.982909 -0.146231 -10.544302 12.155367 -5.757728 9.417476 6.423787 -16.023044 -12.835409 -10.729568 15.564063 -18.845264 -32.246938 0.688262 10.027672 65.318900 0.000000 0.000000 0.000000 8.248293 -12.651210 -2.705265 16.423494 17.833518 -16.008708 -11.118161 -14.144797 68.528380 11.073422 -5.450036 -15.337933 0.000000 0.000000 0.000000 -3.510803 2.808730 5.481289 -1.557841 1.883058 1.300199 6.148355 1.682253 -6.153169 5.296361 0.893013 -7.033711 3.532872 0.913692 -9.349022 0.000000 0.000000 0.000000 -2.071195 8.238263 17.779793 -81.135178 -5.133028 -20.857133 -146.016992 -75.549154 176.698316 17.875499 -11.866341 -1.761946 18.506092 -11.464780 -0.000000 0.000000 0.000000 0.000000 0.000000 0.000000 0.000000 3.357257 -13.503961 5.137648 53.650569 7.336146 21.925605 24.521162 72.431208 0.407251 0.383567 10.795750 0.202136 0.376277 10.801555 0.000000 0.000000 0.000000 0.000000 0.000000 0.000000 0.000000 
-1.719308 17.130625 24.172642 0.391288 -9.888592 11.617216 -4.275568 9.165310 5.305737 -18.775274 -12.161763 -8.595533 14.411240 -18.330603 -30.255575 0.716008 9.078244 60.898735 0.000000 0.000000 0.000000 7.687398 -11.387931 -2.921630 15.656302 16.151696 -14.407109 -10.035193 -15.385095 67.084989 10.946731 -5.903306 -14.418393 0.000000 0.000000 0.000000 -3.934229 2.611588 6.244992 -1.556511 1.637485 0.892877 5.830954 1.437632 -5.660669 5.467226 0.914466 -6.996310 3.712856 0.929137 -9.257667 0.000000 0.000000 0.000000 -1.597335 7.861917 17.869354 -81.474477 -4.875093 -19.729833 -146.197128 -76.568406 176.635667 18.634621 -12.696843 -1.800938 19.308547 -12.263721 0.000000 0.000000 0.000000 0.000000 0.000000 0.000000 0.000000 2.299094 -13.645338 4.958173 55.335980 7.884713 21.089225 27.019931 71.154487 0.369540 0.551459 10.295360 0.183536 0.545221 10.300685 0.000000 0.000000 0.000000 0.000000 0.000000 0.000000 0.000000 
-1.735011 17.156525 24.359735 0.875805 -9.268634 11.123138 -3.073007 8.955722 4.278611 -21.042561 -11.455276 -6.802784 13.194650 -17.726174 -28.156556 0.782996 8.218504 56.637255 0.000000 0.000000 0.000000 7.276460 -10.154331 -3.045863 14.752527 14.510417 -12.901345 -8.895270 -16.529601 65.546582 10.752991 -6.258719 -13.467120 0.000000 0.000000 0.000000 -4.285489 2.387954 6.908344 -1.500360 1.372744 0.520021 5.452919 1.196238 -5.214808 5.624057 0.832811 -6.911387 3.531185 0.837906 -8.346598 0.000000 0.000000 0.000000 -1.249452 7.572850 17.936213 -81.733184 -4.513174 -18.494775 -146.403337 -77.732480 176.580341 19.402440 -13.590228 -1.837228 20.124432 -13.121236 0.000000 0.000000 0.000000 0.000000 0.000000 0.000000 0.000000 1.319427 -13.754730 4.796345 56.893779 8.438653 20.194788 29.522963 69.793762 0.326304 0.672983 9.681566 0.162160 0.667463 9.686284 0.000000 0.000000 0.000000 0.000000 0.000000 0.000000 0.000000 
-1.747752 17.183978 24.543508 1.307985 -8.699759 10.703620 -2.152070 8.798873 3.372827 -22.837280 -10.783762 -5.384257 11.956791 -17.042915 -26.003577 0.859064 7.445430 52.594869 0.000000 0.000000 0.000000 7.018455 -8.982713 -3.066115 13.717951 12.955799 -11.544011 -7.707582 -17.560891 63.949599 10.503651 -6.515427 -12.508432 0.000000 0.000000 0.000000 -4.567827 2.140928 7.444085 -1.399115 1.092243 0.166021 5.016270 0.960661 -4.816304 5.760280 0.652304 -6.771474 3.005730 0.655850 -6.635250 0.000000 0.000000 0.000000 -1.028236 7.371817 17.981674 -81.909481 -4.044341 -17.146437 -146.647976 -79.054730 176.533849 20.171692 -14.549044 -1.870289 20.947223 -14.039265 0.000000 0.000000 0.000000 0.000000 0.000000 0.000000 0.000000 0.430123 -13.833634 4.649724 58.317342 9.000529 19.252280 32.002820 68.345645 0.278511 0.739359 8.943975 0.138484 0.734289 8.948003 0.000000 0.000000 0.000000 0.000000 0.000000 0.000000 0.000000 
